<svg width="291" height="291" viewBox="0 0 291 291" fill="none" xmlns="http://www.w3.org/2000/svg">
<g clip-path="url(#clip0_9_7)">
<mask id="mask0_9_7" style="mask-type:luminance" maskUnits="userSpaceOnUse" x="0" y="-1" width="59" height="59">
<path d="M58.75 -0.375H0.5V57.875H58.75V-0.375Z" fill="white"/>
</mask>
<g mask="url(#mask0_9_7)">
<path d="M58.75 -0.375H0.5V57.875H58.75V-0.375Z" fill="white"/>
<path d="M120.554 -0.219879C119.068 2.66312 117.67 5.63412 116.185 8.51712C106.836 27.3031 97.3993 46.0891 88.0502 64.8741C85.5163 69.8551 79.8369 73.0001 74.2448 72.5631C68.3907 72.1261 64.4588 69.1561 61.8375 64.0011C51.4399 43.4671 41.0422 22.9341 30.5571 2.48914C30.295 1.96414 30.0329 1.52711 29.7708 1.00311C29.6834 1.00311 29.596 1.00311 29.5086 1.00311C29.5086 1.44011 29.5086 1.79014 29.5086 2.22614C29.5086 22.4101 29.5086 42.5941 29.5086 62.7771C29.5086 66.7091 28.5475 70.2041 25.8389 73.0881C21.8196 77.4561 16.7518 78.7671 11.1598 77.2821C5.65515 75.7961 2.16013 72.1261 0.849502 66.5341C0.587375 65.3991 0.5 64.2631 0.5 63.1271C0.5 24.0701 0.5 -14.9859 0.5 -54.0429C0.5 -61.1199 4.78139 -66.7119 11.3345 -68.3729C18.1498 -70.0329 24.7904 -66.9749 28.0232 -60.5959C41.8286 -33.5099 55.6339 -6.33588 69.3518 20.7501C71.2741 24.5071 73.1963 28.2641 75.1186 32.0211C75.2933 32.2831 75.4681 32.6331 75.7302 33.0701C75.9923 32.6331 76.1671 32.2831 76.3418 31.8471C91.6325 1.09111 106.836 -29.7529 122.127 -60.5089C124.748 -65.8389 129.117 -68.8089 135.145 -68.8089C140.825 -68.8089 145.194 -66.2759 148.077 -61.2949C149.3 -59.1979 149.737 -56.8389 149.737 -54.3929C149.737 -20.6659 149.737 13.0611 149.737 46.7001C149.737 52.2921 149.737 57.9721 149.737 63.5641C149.737 70.3791 144.407 76.4951 137.592 77.5441C130.427 78.6801 123.525 74.5731 121.515 67.8451C120.991 66.1851 120.816 64.4371 120.816 62.6901C120.729 42.1571 120.816 21.5361 120.816 1.00311C120.816 0.566113 120.816 0.129115 120.816 -0.306885C120.729 -0.219885 120.641 -0.219879 120.554 -0.219879Z" fill="#F5F4F8"/>
</g>
<mask id="mask1_9_7" style="mask-type:luminance" maskUnits="userSpaceOnUse" x="58" y="-1" width="59" height="59">
<path d="M117 -0.375H58.75V57.875H117V-0.375Z" fill="white"/>
</mask>
<g mask="url(#mask1_9_7)">
<path d="M117 -0.375H58.75V57.875H117V-0.375Z" fill="white"/>
<path d="M134.507 26.799C134.507 27.498 134.507 27.935 134.507 28.459C134.507 62.797 134.507 97.048 134.507 131.387C134.507 136.367 132.672 140.474 128.653 143.444C120.352 149.473 107.421 145.454 105.673 134.008C105.498 132.959 105.586 131.823 105.586 130.775C105.586 96.699 105.586 62.622 105.586 28.459C105.586 26.624 105.673 26.886 104.013 26.886C93.6153 26.886 83.2177 26.886 72.9075 26.886C70.1989 26.886 67.5776 26.362 65.1311 24.964C60.5002 22.255 58.6654 17.974 58.7527 12.819C58.9275 6.091 63.2089 1.19799 69.8494 -0.113007C70.8979 -0.288007 71.9463 -0.375 72.9948 -0.375C104.363 -0.375 135.643 -0.375 167.01 -0.375C174.612 -0.375 179.418 4.78 180.641 9.32401C183.175 18.411 176.884 26.799 167.272 26.886C156.875 26.886 146.477 26.886 136.08 26.886C135.555 26.799 135.118 26.799 134.507 26.799Z" fill="#F5F4F8"/>
</g>
<mask id="mask2_9_7" style="mask-type:luminance" maskUnits="userSpaceOnUse" x="0" y="57" width="59" height="60">
<path d="M58.75 57.875H0.5V116.125H58.75V57.875Z" fill="white"/>
</mask>
<g mask="url(#mask2_9_7)">
<path d="M58.75 57.875H0.5V116.125H58.75V57.875Z" fill="white"/>
<path d="M64.0521 45.2149C62.5667 48.0979 61.1687 51.0689 59.6833 53.9519C50.3341 72.7379 40.8976 91.5239 31.5484 110.309C29.0145 115.29 23.3351 118.435 17.7431 117.998C11.8889 117.562 7.95704 114.591 5.33577 109.436C-5.0619 88.9029 -15.4596 68.3689 -25.9446 47.9239C-26.2067 47.3989 -26.4689 46.9619 -26.731 46.4379C-26.8184 46.4379 -26.9057 46.4379 -26.9931 46.4379C-26.9931 46.8749 -26.9931 47.2249 -26.9931 47.6609C-26.9931 67.8449 -26.9931 88.0289 -26.9931 108.212C-26.9931 112.144 -27.9542 115.639 -30.6629 118.523C-34.6822 122.891 -39.7499 124.202 -45.3419 122.717C-50.8466 121.231 -54.3416 117.562 -55.6522 111.97C-55.9144 110.834 -56.0017 109.698 -56.0017 108.562C-56.0017 69.5049 -56.0017 30.4489 -56.0017 -8.60808C-56.0017 -15.6851 -51.7204 -21.2771 -45.1672 -22.9381C-38.3519 -24.5981 -31.7114 -21.5401 -28.4785 -15.1611C-14.6732 11.9249 -0.86788 39.0989 12.8501 66.1849C14.7723 69.9419 16.6946 73.6989 18.6168 77.4559C18.7916 77.7179 18.9663 78.0679 19.2285 78.5049C19.4906 78.0679 19.6653 77.7179 19.8401 77.2819C35.1308 46.5259 50.3341 15.6819 65.6248 -15.0741C68.2461 -20.4041 72.6148 -23.3741 78.6437 -23.3741C84.3231 -23.3741 88.6919 -20.8411 91.5753 -15.8601C92.7986 -13.7631 93.2354 -11.4041 93.2354 -8.95809C93.2354 24.7689 93.2354 58.4959 93.2354 92.1349C93.2354 97.7269 93.2354 103.407 93.2354 108.999C93.2354 115.814 87.9055 121.93 81.0903 122.979C73.9255 124.115 67.0228 120.008 65.0132 113.28C64.4889 111.62 64.3142 109.873 64.3142 108.125C64.2268 87.5919 64.3142 66.9709 64.3142 46.4379C64.3142 46.0009 64.3142 45.5639 64.3142 45.1279C64.2268 45.2149 64.1394 45.2149 64.0521 45.2149Z" fill="#F5F4F8"/>
</g>
<mask id="mask3_9_7" style="mask-type:luminance" maskUnits="userSpaceOnUse" x="58" y="57" width="59" height="60">
<path d="M117 57.875H58.75V116.125H117V57.875Z" fill="white"/>
</mask>
<g mask="url(#mask3_9_7)">
<path d="M117 57.875H58.75V116.125H117V57.875Z" fill="white"/>
<path d="M87.6159 85.049C87.6159 85.748 87.6159 86.185 87.6159 86.709C87.6159 121.047 87.6159 155.298 87.6159 189.637C87.6159 194.617 85.7811 198.724 81.7618 201.694C73.4612 207.723 60.5297 203.704 58.7822 192.258C58.6075 191.209 58.6948 190.073 58.6948 189.025C58.6948 154.949 58.6948 120.872 58.6948 86.709C58.6948 84.874 58.7822 85.136 57.1221 85.136C46.7245 85.136 36.3269 85.136 26.0166 85.136C23.308 85.136 20.6868 84.612 18.2403 83.214C13.6094 80.505 11.7745 76.224 11.8619 71.069C12.0367 64.341 16.318 59.448 22.9585 58.137C24.007 57.962 25.0555 57.875 26.104 57.875C57.4716 57.875 88.7518 57.875 120.119 57.875C127.721 57.875 132.527 63.03 133.75 67.574C136.284 76.661 129.993 85.049 120.382 85.136C109.984 85.136 99.5863 85.136 89.1887 85.136C88.6644 85.049 88.2275 85.049 87.6159 85.049Z" fill="#F5F4F8"/>
</g>
<mask id="mask4_9_7" style="mask-type:luminance" maskUnits="userSpaceOnUse" x="0" y="116" width="59" height="59">
<path d="M58.75 116.125H0.5V174.375H58.75V116.125Z" fill="white"/>
</mask>
<g mask="url(#mask4_9_7)">
<path d="M58.75 116.125H0.5V174.375H58.75V116.125Z" fill="white"/>
<path d="M29.6849 136.376C28.1995 139.259 26.8015 142.23 25.3161 145.113C15.9669 163.899 6.53041 182.685 -2.81876 201.47C-5.35264 206.451 -11.0321 209.596 -16.6241 209.159C-22.4782 208.722 -26.4101 205.752 -29.0314 200.597C-39.4291 180.063 -49.8267 159.53 -60.3118 139.084C-60.5739 138.56 -60.836 138.123 -61.0982 137.599C-61.1855 137.599 -61.2729 137.599 -61.3603 137.599C-61.3603 138.036 -61.3603 138.386 -61.3603 138.822C-61.3603 159.006 -61.3603 179.19 -61.3603 199.373C-61.3603 203.305 -62.3214 206.8 -65.0301 209.684C-69.0493 214.052 -74.1171 215.363 -79.7091 213.878C-85.2138 212.392 -88.7088 208.722 -90.0194 203.13C-90.2815 201.995 -90.3689 200.859 -90.3689 199.723C-90.3689 160.666 -90.3689 121.609 -90.3689 82.5531C-90.3689 75.4751 -86.0875 69.8831 -79.5344 68.2231C-72.7191 66.5631 -66.0786 69.6211 -62.8457 76.0001C-49.0404 103.086 -35.235 130.26 -21.5171 157.346C-19.5948 161.103 -17.6726 164.86 -15.7503 168.617C-15.5756 168.879 -15.4008 169.229 -15.1387 169.666C-14.8766 169.229 -14.7018 168.879 -14.5271 168.443C0.763631 137.686 15.9669 106.843 31.2576 76.0871C33.8789 70.7571 38.2477 67.7861 44.2766 67.7861C49.956 67.7861 54.3247 70.3201 57.2081 75.3011C58.4314 77.3981 58.8683 79.7571 58.8683 82.2031C58.8683 115.93 58.8683 149.657 58.8683 183.296C58.8683 188.888 58.8683 194.568 58.8683 200.16C58.8683 206.975 53.5384 213.091 46.7231 214.14C39.5583 215.276 32.6556 211.169 30.646 204.441C30.1218 202.781 29.947 201.033 29.947 199.286C29.8596 178.753 29.947 158.132 29.947 137.599C29.947 137.162 29.947 136.725 29.947 136.289C29.8596 136.376 29.7723 136.376 29.6849 136.376Z" fill="#F5F4F8"/>
</g>
<mask id="mask5_9_7" style="mask-type:luminance" maskUnits="userSpaceOnUse" x="0" y="174" width="59" height="59">
<path d="M58.75 174.375H0.5V232.625H58.75V174.375Z" fill="white"/>
</mask>
<g mask="url(#mask5_9_7)">
<path d="M58.75 174.375H0.5V232.625H58.75V174.375Z" fill="white"/>
<path d="M16.6747 203.558C19.5581 205.044 22.5288 206.442 25.4122 207.927C44.1978 217.276 62.9834 226.713 81.7691 236.062C86.7495 238.596 89.895 244.275 89.4581 249.867C89.0212 255.721 86.0505 259.653 80.8953 262.275C60.3622 272.672 39.8291 283.07 19.3833 293.555C18.8591 293.817 18.4222 294.079 17.8979 294.341C17.8979 294.429 17.8979 294.516 17.8979 294.603C18.3348 294.603 18.6843 294.603 19.1212 294.603C39.3048 294.603 59.4885 294.603 79.6721 294.603C83.604 294.603 87.0989 295.565 89.9823 298.273C94.3511 302.292 95.6617 307.36 94.1763 312.952C92.691 318.457 89.0212 321.952 83.4292 323.263C82.2933 323.525 81.1575 323.612 80.0216 323.612C40.9649 323.612 1.90831 323.612 -37.1483 323.612C-44.2257 323.612 -49.8177 319.331 -51.4778 312.778C-53.138 305.962 -50.0798 299.322 -43.7015 296.089C-16.6152 282.283 10.5584 268.478 37.6447 254.76C41.4018 252.838 45.1589 250.916 48.9161 248.993C49.1782 248.819 49.5277 248.644 49.9646 248.382C49.5277 248.12 49.1782 247.945 48.7413 247.77C17.9853 232.48 -12.8581 217.276 -43.6141 201.986C-48.944 199.364 -51.9147 194.995 -51.9147 188.967C-51.9147 183.287 -49.3808 178.918 -44.4005 176.035C-42.3035 174.812 -39.9443 174.375 -37.4978 174.375C-3.77105 174.375 29.9557 174.375 63.5951 174.375C69.1871 174.375 74.8665 174.375 80.4585 174.375C87.2737 174.375 93.39 179.705 94.4385 186.52C95.5743 193.685 91.4677 200.588 84.7398 202.597C83.0797 203.121 81.3322 203.296 79.5847 203.296C59.0516 203.384 38.4311 203.296 17.8979 203.296C17.4611 203.296 17.0242 203.296 16.5873 203.296C16.6747 203.384 16.6747 203.471 16.6747 203.558Z" fill="#F5F4F8"/>
</g>
<mask id="mask6_9_7" style="mask-type:luminance" maskUnits="userSpaceOnUse" x="0" y="232" width="59" height="59">
<path d="M58.75 232.625H0.5V290.875H58.75V232.625Z" fill="white"/>
</mask>
<g mask="url(#mask6_9_7)">
<path d="M58.75 232.625H0.5V290.875H58.75V232.625Z" fill="white"/>
<path d="M-4.29768 216.374C-1.4143 217.859 1.55645 219.257 4.43983 220.742C23.2255 230.092 42.0111 239.528 60.7967 248.877C65.7771 251.411 68.9226 257.091 68.4858 262.683C68.0489 268.537 65.0781 272.469 59.923 275.09C39.3899 285.488 18.8567 295.885 -1.58905 306.37C-2.1133 306.632 -2.55018 306.895 -3.07443 307.157C-3.07443 307.244 -3.07443 307.331 -3.07443 307.419C-2.63755 307.419 -2.28805 307.419 -1.85117 307.419C18.3325 307.419 38.5161 307.419 58.6998 307.419C62.6316 307.419 66.1266 308.38 69.01 311.089C73.3787 315.108 74.6894 320.176 73.204 325.768C71.7186 331.272 68.0489 334.767 62.4569 336.078C61.321 336.34 60.1851 336.427 59.0492 336.427C19.9926 336.427 -19.064 336.427 -58.1207 336.427C-65.198 336.427 -70.79 332.146 -72.4502 325.593C-74.1103 318.778 -71.0522 312.137 -64.6738 308.904C-37.5875 295.099 -10.4139 281.294 16.6724 267.576C20.4295 265.653 24.1866 263.731 27.9437 261.809C28.2059 261.634 28.5554 261.459 28.9922 261.197C28.5554 260.935 28.2059 260.76 27.769 260.586C-2.98706 245.295 -33.8304 230.092 -64.5864 214.801C-69.9163 212.18 -72.887 207.811 -72.887 201.782C-72.887 196.103 -70.3532 191.734 -65.3728 188.85C-63.2758 187.627 -60.9167 187.19 -58.4702 187.19C-24.7434 187.19 8.98333 187.19 42.6227 187.19C48.2147 187.19 53.8941 187.19 59.4861 187.19C66.3014 187.19 72.4176 192.52 73.4661 199.335C74.602 206.5 70.4954 213.403 63.7675 215.413C62.1074 215.937 60.3599 216.112 58.6124 216.112C38.0792 216.199 17.4587 216.112 -3.07443 216.112C-3.5113 216.112 -3.94819 216.112 -4.38506 216.112C-4.29769 216.199 -4.29768 216.286 -4.29768 216.374Z" fill="#F5F4F8"/>
</g>
<mask id="mask7_9_7" style="mask-type:luminance" maskUnits="userSpaceOnUse" x="58" y="174" width="59" height="59">
<path d="M117 174.375H58.75V232.625H117V174.375Z" fill="white"/>
</mask>
<g mask="url(#mask7_9_7)">
<path d="M117 174.375H58.75V232.625H117V174.375Z" fill="white"/>
<path d="M96.5815 206.383C96.0873 206.877 95.7784 207.186 95.4077 207.557C71.1267 231.838 46.9076 256.057 22.6267 280.338C19.1051 283.859 14.9038 285.466 9.96113 284.724C-0.171346 283.118 -6.47325 271.132 0.384725 261.803C1.00256 260.938 1.86752 260.196 2.60892 259.455C26.7045 235.359 50.8 211.264 74.9574 187.106C76.2548 185.809 76.1312 186.056 74.9574 184.882C67.6051 177.53 60.2529 170.178 52.9625 162.887C51.0472 160.972 49.5644 158.748 48.823 156.029C47.4638 150.84 49.1937 146.515 52.9007 142.931C57.7816 138.297 64.2689 137.865 69.8912 141.634C70.7561 142.252 71.5593 142.931 72.3007 143.673C94.4809 165.853 116.599 187.971 138.78 210.152C144.155 215.527 143.908 222.57 141.56 226.648C136.926 234.865 126.547 236.348 119.689 229.613C112.336 222.261 104.984 214.909 97.6319 207.557C97.3229 207.124 97.014 206.815 96.5815 206.383Z" fill="#F5F4F8"/>
</g>
<mask id="mask8_9_7" style="mask-type:luminance" maskUnits="userSpaceOnUse" x="58" y="116" width="59" height="59">
<path d="M117 116.125H58.75V174.375H117V116.125Z" fill="white"/>
</mask>
<g mask="url(#mask8_9_7)">
<path d="M117 116.125H58.75V174.375H117V116.125Z" fill="white"/>
<path d="M102.469 149.415C102.469 150.114 102.469 150.551 102.469 151.075C102.469 185.414 102.469 219.665 102.469 254.003C102.469 258.983 100.634 263.09 96.6148 266.061C88.3142 272.09 75.3828 268.07 73.6353 256.624C73.4605 255.576 73.5479 254.44 73.5479 253.391C73.5479 219.315 73.5479 185.239 73.5479 151.075C73.5479 149.24 73.6352 149.502 71.9751 149.502C61.5775 149.502 51.1799 149.502 40.8697 149.502C38.1611 149.502 35.5398 148.978 33.0933 147.58C28.4624 144.872 26.6276 140.59 26.7149 135.435C26.8897 128.707 31.1711 123.814 37.8116 122.504C38.86 122.329 39.9085 122.241 40.957 122.241C72.3246 122.241 103.605 122.241 134.972 122.241C142.574 122.241 147.38 127.397 148.603 131.94C151.137 141.027 144.846 149.415 135.235 149.502C124.837 149.502 114.439 149.502 104.042 149.502C103.517 149.415 103.081 149.415 102.469 149.415Z" fill="#F5F4F8"/>
</g>
<mask id="mask9_9_7" style="mask-type:luminance" maskUnits="userSpaceOnUse" x="117" y="174" width="59" height="59">
<path d="M175.25 174.375H117V232.625H175.25V174.375Z" fill="white"/>
</mask>
<g mask="url(#mask9_9_7)">
<path d="M175.25 174.375H117V232.625H175.25V174.375Z" fill="white"/>
<path d="M177.721 240.625C181.23 243.736 184.53 246.611 187.892 249.592C203.933 263.66 220.036 277.834 236.054 291.986C237.308 293.046 238.432 294.252 239.342 295.581C242.427 299.935 242.539 304.579 240.046 309.157C239.217 310.563 238.197 312.009 237.075 313.155C232.651 317.85 226.792 318.451 221.404 314.926C220.482 314.317 219.582 313.624 218.789 312.869C191.554 288.927 164.342 264.901 137.107 240.96C130.591 235.233 124.914 228.737 120.871 220.869C117.732 214.691 116.04 208.177 116.707 201.3C117.523 191.84 121.703 184.005 129.01 178.003C133.309 174.451 138.302 173.708 143.28 176.399C148.027 178.937 150.842 182.948 150.79 188.543C150.763 192.696 149.239 196.358 146.37 199.299C143.998 201.738 143.741 204.383 144.835 207.39C146.255 211.208 148.66 214.385 151.516 217.231C152.663 218.352 153.696 219.896 155.047 220.258C156.313 220.597 158.002 219.693 159.387 219.25C189.403 210.196 219.418 201.142 249.456 192.004C251.714 191.342 254.011 190.872 256.38 191.145C259.723 191.498 262.389 193.027 264.378 195.731C267.03 199.336 268.106 203.424 267.628 207.909C267.105 212.563 264.399 215.908 260.108 217.744C257.568 218.782 254.843 219.499 252.203 220.239C227.886 226.93 203.485 233.598 179.191 240.205C178.617 240.323 178.318 240.423 177.721 240.625Z" fill="#F5F4F8"/>
</g>
<mask id="mask10_9_7" style="mask-type:luminance" maskUnits="userSpaceOnUse" x="58" y="232" width="59" height="59">
<path d="M117 232.625H58.75V290.875H117V232.625Z" fill="white"/>
</mask>
<g mask="url(#mask10_9_7)">
<path d="M117 232.625H58.75V290.875H117V232.625Z" fill="white"/>
<path d="M136.191 239.294C135.697 239.789 135.388 240.098 135.018 240.468C110.737 264.749 86.5175 288.968 62.2366 313.249C58.7149 316.771 54.5137 318.377 49.571 317.636C39.4385 316.029 33.1366 304.044 39.9946 294.714C40.6124 293.849 41.4774 293.108 42.2188 292.366C66.3143 268.271 90.4099 244.175 114.567 220.018C115.865 218.721 115.741 218.968 114.567 217.794C107.215 210.442 99.8628 203.089 92.5724 195.799C90.6571 193.884 89.1743 191.659 88.4329 188.941C87.0736 183.751 88.8036 179.426 92.5106 175.843C97.3915 171.209 103.879 170.777 109.501 174.545C110.366 175.163 111.169 175.843 111.911 176.584C134.091 198.764 156.209 220.883 178.39 243.063C183.765 248.438 183.518 255.482 181.17 259.559C176.536 267.777 166.156 269.259 159.298 262.525C151.946 255.173 144.594 247.821 137.242 240.468C136.933 240.036 136.624 239.727 136.191 239.294Z" fill="#F5F4F8"/>
</g>
<mask id="mask11_9_7" style="mask-type:luminance" maskUnits="userSpaceOnUse" x="175" y="174" width="59" height="59">
<path d="M233.5 174.375H175.25V232.625H233.5V174.375Z" fill="white"/>
</mask>
<g mask="url(#mask11_9_7)">
<path d="M233.5 174.375H175.25V232.625H233.5V174.375Z" fill="white"/>
<path d="M162.237 140.98C163.131 139.781 163.906 138.614 164.8 137.415C172.71 125.637 183.561 117.676 196.589 112.586C198.152 111.975 199.911 111.376 201.602 111.243C207.077 110.671 211.533 112.739 214.428 117.337C217.431 122.097 217.17 127.092 214.374 131.935C212.583 135.037 209.799 137.062 206.478 138.272C201.191 140.264 196.108 142.778 192.037 146.683C187.597 150.879 184.204 155.882 181.838 161.377C173.492 181.075 178.556 202.361 195.077 216.035C207.343 226.245 221.5 230.383 237.392 227.148C248.055 224.931 256.988 219.595 263.659 210.835C269.906 202.637 272.971 193.309 272.919 183.089C272.888 180.347 272.737 177.637 272.587 174.927C272.155 169.734 273.789 165.33 277.976 162.097C282.282 158.833 286.998 158.529 291.864 160.934C296.655 163.297 299.238 167.21 299.822 172.49C301.305 184.949 300.102 197.169 295.368 208.863C286.043 231.83 269.728 247.331 245.65 253.911C231.403 257.792 217.155 257.133 203.228 252.421C195.631 249.851 188.483 246.33 182.034 241.598C159.241 224.806 148.775 202.217 150.787 173.918C151.445 164.915 154.105 156.463 158.227 148.451C158.445 148.072 158.544 147.726 158.687 147.304C159.834 145.141 161.014 143.098 162.237 140.98Z" fill="#F5F4F8"/>
</g>
<mask id="mask12_9_7" style="mask-type:luminance" maskUnits="userSpaceOnUse" x="233" y="174" width="59" height="59">
<path d="M291.75 174.375H233.5V232.625H291.75V174.375Z" fill="white"/>
</mask>
<g mask="url(#mask12_9_7)">
<path d="M291.75 174.375H233.5V232.625H291.75V174.375Z" fill="white"/>
<path d="M205.009 182.118C204.866 181.696 204.767 181.35 204.624 180.928C202.395 174.446 204.998 167.596 211.084 163.981C216.823 160.466 224.197 161.355 228.716 166.211C229.761 167.323 230.623 168.641 231.366 169.928C244.865 193.309 258.365 216.691 271.864 240.073C272.083 240.451 272.301 240.83 272.519 241.208C272.595 241.164 272.715 241.196 272.79 241.153C272.886 240.794 272.938 240.361 273.034 240.003C279.202 201.231 285.369 162.459 291.612 123.643C292.582 117.635 296.26 113.695 301.986 111.903C307.484 110.242 312.561 111.346 316.73 115.598C317.645 116.483 318.256 117.542 318.912 118.677C338.44 152.501 357.936 186.444 377.616 220.181C382.684 228.959 377.369 240.199 367.071 242.109C361.689 243.098 355.89 240.392 353.018 235.593C351.151 232.535 349.479 229.464 347.688 226.362C335.63 205.477 323.529 184.517 311.471 163.632C311.253 163.254 311.078 162.951 310.685 162.27C310.569 162.942 310.473 163.301 310.377 163.659C304.102 202.594 297.827 241.529 291.584 280.344C290.012 290.029 280.12 295.438 271.237 291.587C269.229 290.729 267.543 289.382 266.148 287.665C266.017 287.438 265.735 287.298 265.528 287.115C245.42 252.112 225.236 217.153 205.009 182.118Z" fill="#F5F4F8"/>
</g>
<mask id="mask13_9_7" style="mask-type:luminance" maskUnits="userSpaceOnUse" x="117" y="232" width="59" height="59">
<path d="M175.25 232.625H117V290.875H175.25V232.625Z" fill="white"/>
</mask>
<g mask="url(#mask13_9_7)">
<path d="M175.25 232.625H117V290.875H175.25V232.625Z" fill="white"/>
<path d="M150.342 251.693C153.85 254.804 157.151 257.678 160.513 260.659C176.554 274.727 192.656 288.901 208.674 303.053C209.928 304.113 211.052 305.319 211.963 306.648C215.047 311.002 215.16 315.646 212.667 320.224C211.838 321.63 210.817 323.076 209.696 324.223C205.272 328.917 199.412 329.518 194.025 325.994C193.102 325.385 192.202 324.691 191.41 323.936C164.175 299.994 136.962 275.968 109.728 252.027C103.211 246.3 97.5344 239.804 93.4915 231.937C90.3526 225.759 88.6607 219.245 89.3274 212.368C90.1436 202.907 94.3235 195.072 101.631 189.07C105.929 185.518 110.922 184.775 115.9 187.466C120.648 190.004 123.463 194.015 123.411 199.61C123.383 203.763 121.859 207.426 118.991 210.366C116.619 212.806 116.362 215.451 117.456 218.457C118.875 222.275 121.281 225.452 124.136 228.298C125.283 229.419 126.317 230.963 127.667 231.325C128.933 231.664 130.623 230.76 132.008 230.317C162.023 221.263 192.039 212.209 222.077 203.071C224.335 202.41 226.631 201.94 229.001 202.213C232.343 202.565 235.009 204.094 236.999 206.798C239.651 210.403 240.727 214.491 240.249 218.976C239.725 223.63 237.02 226.975 232.729 228.811C230.189 229.849 227.464 230.566 224.823 231.306C200.507 237.997 176.106 244.665 151.811 251.272C151.237 251.39 150.939 251.491 150.342 251.693Z" fill="#F5F4F8"/>
</g>
<mask id="mask14_9_7" style="mask-type:luminance" maskUnits="userSpaceOnUse" x="175" y="232" width="59" height="59">
<path d="M233.5 232.625H175.25V290.875H233.5V232.625Z" fill="white"/>
</mask>
<g mask="url(#mask14_9_7)">
<path d="M233.5 232.625H175.25V290.875H233.5V232.625Z" fill="white"/>
<path d="M162.237 178.551C163.131 177.352 163.906 176.185 164.8 174.986C172.71 163.208 183.561 155.248 196.589 150.158C198.152 149.547 199.911 148.948 201.602 148.815C207.077 148.243 211.533 150.311 214.428 154.908C217.431 159.668 217.17 164.663 214.374 169.506C212.583 172.609 209.799 174.634 206.478 175.844C201.191 177.836 196.108 180.349 192.037 184.254C187.597 188.45 184.204 193.453 181.838 198.948C173.492 218.646 178.556 239.932 195.077 253.607C207.343 263.817 221.5 267.955 237.392 264.72C248.055 262.502 256.988 257.167 263.659 248.407C269.906 240.209 272.971 230.881 272.919 220.66C272.888 217.918 272.737 215.208 272.587 212.498C272.155 207.305 273.789 202.902 277.976 199.669C282.282 196.404 286.998 196.1 291.864 198.506C296.655 200.868 299.238 204.781 299.822 210.062C301.305 222.521 300.102 234.74 295.368 246.435C286.043 269.402 269.728 284.903 245.65 291.482C231.403 295.364 217.155 294.704 203.228 289.993C195.631 287.423 188.483 283.901 182.034 279.169C159.241 262.378 148.775 239.789 150.787 211.49C151.445 202.487 154.105 194.034 158.227 186.022C158.445 185.644 158.544 185.297 158.687 184.875C159.834 182.713 161.014 180.67 162.237 178.551Z" fill="#F5F4F8"/>
</g>
<mask id="mask15_9_7" style="mask-type:luminance" maskUnits="userSpaceOnUse" x="117" y="-1" width="59" height="59">
<path d="M175.25 -0.375H117V57.875H175.25V-0.375Z" fill="white"/>
</mask>
<g mask="url(#mask15_9_7)">
<path d="M175.25 -0.375H117V57.875H175.25V-0.375Z" fill="white"/>
<path d="M170.457 -11.844C172.554 -16.038 174.476 -19.97 176.486 -23.989C185.922 -43.125 195.446 -62.347 204.97 -81.482C205.669 -82.968 206.542 -84.366 207.591 -85.589C210.999 -89.695 215.455 -91.006 220.522 -89.783C222.095 -89.346 223.755 -88.734 225.153 -87.948C230.833 -84.89 232.93 -79.385 230.92 -73.269C230.571 -72.22 230.134 -71.172 229.609 -70.211C213.532 -37.707 197.368 -5.20403 181.291 27.3C177.447 35.076 172.641 42.241 166.088 48.182C160.933 52.813 155.079 56.133 148.263 57.269C138.914 58.929 130.264 56.92 122.575 51.415C118.032 48.182 116.022 43.551 117.333 38.047C118.556 32.804 121.701 29.047 127.119 27.649C131.138 26.601 135.07 27.125 138.652 29.135C141.623 30.795 144.244 30.358 146.865 28.523C150.186 26.164 152.632 23.018 154.642 19.523C155.428 18.125 156.651 16.727 156.651 15.329C156.651 14.019 155.341 12.621 154.554 11.397C138.041 -15.252 121.527 -41.901 104.925 -68.551C103.702 -70.56 102.654 -72.657 102.304 -75.016C101.78 -78.337 102.566 -81.307 104.663 -83.929C107.459 -87.424 111.129 -89.521 115.585 -90.22C120.216 -90.919 124.148 -89.171 127.031 -85.501C128.691 -83.317 130.089 -80.871 131.487 -78.511C144.244 -56.755 157.001 -34.911 169.67 -13.155C169.932 -12.631 170.107 -12.369 170.457 -11.844Z" fill="#F5F4F8"/>
</g>
<mask id="mask16_9_7" style="mask-type:luminance" maskUnits="userSpaceOnUse" x="175" y="-1" width="59" height="59">
<path d="M233.5 -0.375H175.25V57.875H233.5V-0.375Z" fill="white"/>
</mask>
<g mask="url(#mask16_9_7)">
<path d="M233.5 -0.375H175.25V57.875H233.5V-0.375Z" fill="white"/>
<path d="M250.581 -91.2451C252.066 -91.0701 253.464 -90.9831 254.95 -90.8081C269.104 -89.8471 281.424 -84.4291 292.346 -75.6921C293.657 -74.6431 295.055 -73.4201 296.016 -72.0221C299.249 -67.5661 299.686 -62.6731 297.152 -57.8671C294.531 -52.8871 290.074 -50.6151 284.482 -50.6151C280.9 -50.6151 277.755 -52.0131 275.046 -54.2851C270.677 -57.8671 265.959 -61.0131 260.542 -62.5861C254.688 -64.3331 248.659 -64.7701 242.717 -64.0711C221.485 -61.4501 205.583 -46.4211 202.001 -25.2761C199.292 -9.54912 202.787 4.78087 213.534 16.9259C220.786 25.0519 229.873 30.1189 240.795 31.5169C251.018 32.8279 260.629 30.8179 269.454 25.6629C271.813 24.2649 274.085 22.7799 276.357 21.2939C280.638 18.3239 285.269 17.5369 290.162 19.5469C295.142 21.6439 297.763 25.5759 298.113 30.9929C298.462 36.3229 296.365 40.5169 292.084 43.6619C282.036 51.1769 270.852 56.2439 258.357 57.9919C233.805 61.3999 212.223 55.0209 194.486 37.4589C184.001 27.0609 177.448 14.3919 174.565 -0.025116C172.992 -7.88912 172.468 -15.8401 173.342 -23.7911C176.487 -51.9261 190.817 -72.2841 216.33 -84.6921C224.456 -88.6231 233.106 -90.5461 242.106 -90.9831C242.542 -90.9831 242.892 -91.0701 243.329 -91.1571C245.775 -91.2451 248.134 -91.2451 250.581 -91.2451Z" fill="#F5F4F8"/>
</g>
<mask id="mask17_9_7" style="mask-type:luminance" maskUnits="userSpaceOnUse" x="233" y="-1" width="59" height="59">
<path d="M291.75 -0.375H233.5V57.875H291.75V-0.375Z" fill="white"/>
</mask>
<g mask="url(#mask17_9_7)">
<path d="M291.75 -0.375H233.5V57.875H291.75V-0.375Z" fill="white"/>
<path d="M363.66 93.337C363.573 93.774 363.485 94.124 363.398 94.561C362.087 101.288 356.408 105.919 349.331 106.007C342.603 106.181 336.661 101.725 335.176 95.26C334.826 93.774 334.739 92.201 334.739 90.716C334.739 63.717 334.739 36.718 334.739 9.71897C334.739 9.28297 334.739 8.84597 334.739 8.40897C334.652 8.40897 334.564 8.32099 334.477 8.32099C334.215 8.58399 333.953 8.93298 333.691 9.19498C308.963 39.689 284.236 70.183 259.422 100.677C255.577 105.395 250.422 106.968 244.568 105.657C238.976 104.347 235.132 100.852 233.646 95.085C233.297 93.862 233.297 92.638 233.297 91.328C233.297 52.271 233.384 13.127 233.209 -25.93C233.209 -36.065 243.432 -43.142 253.306 -39.647C258.461 -37.813 262.131 -32.57 262.218 -26.978C262.305 -23.396 262.218 -19.901 262.218 -16.318C262.218 7.79698 262.218 32 262.218 56.116C262.218 56.552 262.218 56.902 262.218 57.688C262.655 57.164 262.917 56.902 263.179 56.64C288.081 26.059 312.983 -4.52302 337.797 -35.017C344.001 -42.618 355.272 -42.356 361.039 -34.58C362.35 -32.832 363.136 -30.823 363.485 -28.638C363.485 -28.376 363.66 -28.114 363.748 -27.852C363.66 12.515 363.66 52.883 363.66 93.337Z" fill="#F5F4F8"/>
</g>
<mask id="mask18_9_7" style="mask-type:luminance" maskUnits="userSpaceOnUse" x="117" y="57" width="59" height="60">
<path d="M175.25 57.875H117V116.125H175.25V57.875Z" fill="white"/>
</mask>
<g mask="url(#mask18_9_7)">
<path d="M175.25 57.875H117V116.125H175.25V57.875Z" fill="white"/>
<path d="M170.457 136.402C172.554 132.208 174.476 128.276 176.486 124.257C185.922 105.121 195.446 85.8991 204.97 66.7641C205.669 65.2781 206.542 63.8801 207.591 62.6571C210.999 58.5511 215.455 57.2401 220.522 58.4631C222.095 58.9001 223.755 59.5121 225.153 60.2981C230.833 63.3561 232.93 68.8611 230.92 74.9771C230.571 76.0261 230.134 77.0741 229.609 78.0351C213.532 110.539 197.368 143.042 181.291 175.546C177.447 183.322 172.641 190.487 166.088 196.428C160.933 201.059 155.079 204.38 148.263 205.515C138.914 207.176 130.264 205.166 122.575 199.661C118.032 196.428 116.022 191.798 117.333 186.293C118.556 181.05 121.701 177.293 127.119 175.895C131.138 174.847 135.07 175.371 138.652 177.381C141.623 179.041 144.244 178.604 146.865 176.769C150.186 174.41 152.632 171.264 154.642 167.769C155.428 166.371 156.651 164.973 156.651 163.575C156.651 162.265 155.341 160.867 154.554 159.644C138.041 132.994 121.527 106.345 104.925 79.6951C103.702 77.6861 102.654 75.5891 102.304 73.2301C101.78 69.9091 102.566 66.9391 104.663 64.3171C107.459 60.8221 111.129 58.7251 115.585 58.0261C120.216 57.3271 124.148 59.0751 127.031 62.7451C128.691 64.9291 130.089 67.3751 131.487 69.7351C144.244 91.4911 157.001 113.335 169.67 135.091C169.932 135.615 170.107 135.878 170.457 136.402Z" fill="#F5F4F8"/>
</g>
<mask id="mask19_9_7" style="mask-type:luminance" maskUnits="userSpaceOnUse" x="175" y="57" width="59" height="60">
<path d="M233.5 57.875H175.25V116.125H233.5V57.875Z" fill="white"/>
</mask>
<g mask="url(#mask19_9_7)">
<path d="M233.5 57.875H175.25V116.125H233.5V57.875Z" fill="white"/>
<path d="M185.34 -32.9951C186.826 -32.8201 188.224 -32.7331 189.709 -32.5581C203.864 -31.5971 216.184 -26.1791 227.105 -17.4421C228.416 -16.3931 229.814 -15.1701 230.775 -13.7721C234.008 -9.31613 234.445 -4.42313 231.911 0.382874C229.29 5.36287 224.834 7.63489 219.242 7.63489C215.659 7.63489 212.514 6.23687 209.805 3.96487C205.436 0.382874 200.718 -2.76312 195.301 -4.33612C189.447 -6.08312 183.418 -6.52014 177.476 -5.82114C156.244 -3.20014 140.342 11.8289 136.76 32.9739C134.051 48.7009 137.546 63.0309 148.293 75.1759C155.545 83.3019 164.632 88.3689 175.554 89.7669C185.777 91.0779 195.388 89.0679 204.213 83.9129C206.572 82.5149 208.844 81.0299 211.116 79.5439C215.397 76.5739 220.028 75.7869 224.921 77.7969C229.901 79.8939 232.523 83.8259 232.872 89.2429C233.222 94.5729 231.125 98.7669 226.843 101.912C216.795 109.427 205.611 114.494 193.117 116.242C168.564 119.65 146.983 113.271 129.246 95.7089C118.761 85.3109 112.207 72.6419 109.324 58.2249C107.751 50.3609 107.227 42.4099 108.101 34.4589C111.246 6.32389 125.576 -14.0341 151.089 -26.4421C159.215 -30.3731 167.865 -32.2961 176.865 -32.7331C177.302 -32.7331 177.651 -32.8201 178.088 -32.9071C180.535 -32.9951 182.894 -32.9951 185.34 -32.9951Z" fill="#F5F4F8"/>
</g>
<mask id="mask20_9_7" style="mask-type:luminance" maskUnits="userSpaceOnUse" x="233" y="57" width="59" height="60">
<path d="M291.75 57.875H233.5V116.125H291.75V57.875Z" fill="white"/>
</mask>
<g mask="url(#mask20_9_7)">
<path d="M291.75 57.875H233.5V116.125H291.75V57.875Z" fill="white"/>
<path d="M316.185 151.587C316.098 152.024 316.011 152.374 315.923 152.811C314.613 159.538 308.933 164.169 301.856 164.257C295.128 164.431 289.187 159.975 287.701 153.51C287.352 152.024 287.264 150.451 287.264 148.966C287.264 121.967 287.264 94.968 287.264 67.969C287.264 67.533 287.264 67.096 287.264 66.659C287.177 66.659 287.09 66.571 287.002 66.571C286.74 66.834 286.478 67.183 286.216 67.445C261.489 97.939 236.762 128.433 211.947 158.927C208.103 163.645 202.948 165.218 197.093 163.907C191.501 162.597 187.657 159.102 186.172 153.335C185.822 152.112 185.822 150.888 185.822 149.578C185.822 110.521 185.909 71.377 185.735 32.32C185.735 22.185 195.958 15.108 205.831 18.603C210.986 20.437 214.656 25.68 214.743 31.272C214.831 34.854 214.743 38.349 214.743 41.932C214.743 66.047 214.743 90.25 214.743 114.366C214.743 114.802 214.743 115.152 214.743 115.938C215.18 115.414 215.442 115.152 215.704 114.89C240.606 84.309 265.508 53.727 290.322 23.233C296.526 15.632 307.797 15.894 313.564 23.67C314.875 25.418 315.661 27.427 316.011 29.612C316.011 29.874 316.185 30.136 316.273 30.398C316.185 70.765 316.185 111.133 316.185 151.587Z" fill="#F5F4F8"/>
</g>
<mask id="mask21_9_7" style="mask-type:luminance" maskUnits="userSpaceOnUse" x="117" y="116" width="59" height="59">
<path d="M175.25 116.125H117V174.375H175.25V116.125Z" fill="white"/>
</mask>
<g mask="url(#mask21_9_7)">
<path d="M175.25 116.125H117V174.375H175.25V116.125Z" fill="white"/>
<path d="M144.245 144.557C146.342 140.363 148.264 136.431 150.274 132.411C159.71 113.276 169.234 94.0541 178.758 74.9191C179.457 73.4331 180.331 72.0351 181.379 70.8121C184.787 66.7051 189.243 65.3951 194.311 66.6181C195.883 67.0551 197.543 67.6671 198.941 68.4531C204.621 71.5111 206.718 77.0161 204.708 83.1321C204.359 84.1801 203.922 85.2291 203.398 86.1901C187.321 118.694 171.156 151.197 155.079 183.701C151.235 191.477 146.429 198.642 139.876 204.583C134.721 209.214 128.867 212.534 122.052 213.67C112.702 215.33 104.052 213.321 96.3633 207.816C91.8198 204.583 89.8102 199.952 91.1208 194.448C92.3441 189.205 95.4896 185.448 100.907 184.05C104.926 183.002 108.858 183.526 112.44 185.535C115.411 187.196 118.032 186.759 120.654 184.924C123.974 182.565 126.42 179.419 128.43 175.924C129.216 174.526 130.44 173.128 130.44 171.73C130.44 170.42 129.129 169.022 128.343 167.798C111.829 141.149 95.3148 114.5 78.7136 87.8501C77.4903 85.8411 76.4418 83.7441 76.0923 81.3841C75.5681 78.0641 76.3545 75.0931 78.4515 72.4721C81.2475 68.9771 84.9172 66.8801 89.3733 66.1811C94.0042 65.4821 97.9361 67.2301 100.819 70.8991C102.48 73.0841 103.878 75.5301 105.276 77.8891C118.032 99.6461 130.789 121.49 143.458 143.246C143.72 143.77 143.895 144.032 144.245 144.557Z" fill="#F5F4F8"/>
</g>
<mask id="mask22_9_7" style="mask-type:luminance" maskUnits="userSpaceOnUse" x="175" y="116" width="59" height="59">
<path d="M233.5 116.125H175.25V174.375H233.5V116.125Z" fill="white"/>
</mask>
<g mask="url(#mask22_9_7)">
<path d="M233.5 116.125H175.25V174.375H233.5V116.125Z" fill="white"/>
<path d="M213.301 134.474C214.786 134.649 216.184 134.736 217.669 134.911C231.824 135.872 244.144 141.289 255.066 150.027C256.376 151.075 257.774 152.299 258.735 153.697C261.968 158.153 262.405 163.046 259.871 167.851C257.25 172.832 252.794 175.104 247.202 175.104C243.62 175.104 240.474 173.706 237.766 171.434C233.397 167.851 228.679 164.706 223.261 163.133C217.407 161.386 211.378 160.949 205.437 161.648C184.205 164.269 168.303 179.298 164.72 200.442C162.012 216.17 165.507 230.499 176.254 242.644C183.506 250.77 192.593 255.838 203.515 257.236C213.737 258.547 223.349 256.537 232.174 251.382C234.533 249.984 236.804 248.499 239.076 247.013C243.358 244.042 247.988 243.256 252.881 245.266C257.862 247.363 260.483 251.295 260.833 256.712C261.182 262.042 259.085 266.236 254.804 269.381C244.756 276.895 233.572 281.963 221.077 283.711C196.525 287.118 174.943 280.74 157.206 263.178C146.721 252.78 140.168 240.111 137.284 225.694C135.712 217.83 135.187 209.879 136.061 201.928C139.207 173.793 153.536 153.435 179.05 141.027C187.175 137.095 195.826 135.173 204.825 134.736C205.262 134.736 205.612 134.649 206.048 134.561C208.495 134.474 210.854 134.474 213.301 134.474Z" fill="#F5F4F8"/>
</g>
<mask id="mask23_9_7" style="mask-type:luminance" maskUnits="userSpaceOnUse" x="233" y="116" width="59" height="59">
<path d="M291.75 116.125H233.5V174.375H291.75V116.125Z" fill="white"/>
</mask>
<g mask="url(#mask23_9_7)">
<path d="M291.75 116.125H233.5V174.375H291.75V116.125Z" fill="white"/>
<path d="M348.224 201.392C348.136 201.828 348.049 202.178 347.961 202.615C346.651 209.343 340.971 213.974 333.894 214.061C327.166 214.236 321.225 209.78 319.739 203.314C319.39 201.828 319.302 200.256 319.302 198.77C319.302 171.771 319.302 144.773 319.302 117.774C319.302 117.337 319.302 116.9 319.302 116.463C319.215 116.463 319.128 116.376 319.04 116.376C318.778 116.638 318.516 116.987 318.254 117.249C293.527 147.743 268.8 178.237 243.985 208.731C240.141 213.449 234.986 215.022 229.132 213.711C223.54 212.401 219.695 208.906 218.21 203.139C217.86 201.916 217.86 200.693 217.86 199.382C217.86 160.325 217.948 121.181 217.773 82.1251C217.773 71.9891 227.996 64.9121 237.869 68.4071C243.024 70.2421 246.694 75.484 246.781 81.076C246.869 84.658 246.781 88.153 246.781 91.736C246.781 115.851 246.781 140.054 246.781 164.17C246.781 164.607 246.781 164.956 246.781 165.743C247.218 165.218 247.48 164.956 247.742 164.694C272.644 134.113 297.546 103.532 322.361 73.038C328.564 65.436 339.836 65.6981 345.602 73.4741C346.913 75.2221 347.699 77.232 348.049 79.416C348.049 79.678 348.223 79.94 348.311 80.202C348.223 120.57 348.224 160.937 348.224 201.392Z" fill="#F5F4F8"/>
</g>
<mask id="mask24_9_7" style="mask-type:luminance" maskUnits="userSpaceOnUse" x="233" y="232" width="59" height="59">
<path d="M291.75 232.625H233.5V290.875H291.75V232.625Z" fill="white"/>
</mask>
<g mask="url(#mask24_9_7)">
<path d="M291.75 232.625H233.5V290.875H291.75V232.625Z" fill="white"/>
<path d="M298.211 101.613C298.633 101.47 298.979 101.371 299.401 101.228C305.883 98.999 312.733 101.602 316.348 107.688C319.863 113.427 318.974 120.8 314.118 125.32C313.006 126.365 311.688 127.227 310.401 127.97C287.02 141.469 263.638 154.968 240.256 168.468C239.878 168.686 239.499 168.905 239.121 169.123C239.165 169.199 239.133 169.318 239.176 169.394C239.535 169.49 239.968 169.542 240.326 169.638C279.098 175.805 317.87 181.973 356.686 188.216C362.694 189.186 366.634 192.864 368.426 198.589C370.087 204.087 368.983 209.164 364.731 213.334C363.846 214.248 362.787 214.86 361.652 215.515C327.828 235.044 293.885 254.54 260.148 274.22C251.37 279.287 240.13 273.973 238.22 263.675C237.231 258.293 239.937 252.494 244.736 249.622C247.794 247.755 250.865 246.083 253.967 244.292C274.852 232.234 295.812 220.133 316.697 208.075C317.075 207.857 317.378 207.682 318.059 207.289C317.386 207.172 317.028 207.077 316.67 206.981C277.735 200.706 238.8 194.431 199.985 188.188C190.3 186.616 184.891 176.724 188.742 167.841C189.6 165.832 190.947 164.147 192.664 162.752C192.891 162.621 193.031 162.338 193.214 162.132C228.217 142.024 263.176 121.84 298.211 101.613Z" fill="#F5F4F8"/>
</g>
</g>
<defs>
<clipPath id="clip0_9_7">
<rect width="291" height="291" fill="white"/>
</clipPath>
</defs>
</svg>
